<svg width="5" height="5" viewBox="0 0 5 5" fill="none" xmlns="http://www.w3.org/2000/svg">
<path d="M2.44743 1.34479C2.44743 1.67661 2.44743 1.96696 2.44743 2.2573C2.71289 2.2573 3.32551 2.2573 3.32551 1.78031C3.32551 1.34479 2.85584 1.34479 2.44743 1.34479ZM4.01981 3.62606C3.93813 3.62606 3.87687 3.60532 3.77477 3.60532C3.69309 3.60532 3.6114 3.62606 3.46846 3.62606C3.06005 3.02463 2.73331 2.69281 2.50869 2.42321H2.427C2.427 2.79651 2.427 3.08685 2.46784 3.62606C2.36574 3.62606 2.3249 3.60532 2.20238 3.60532C2.07985 3.60532 2.03901 3.62606 1.97775 3.62606C1.99817 3.35646 2.01859 3.06611 2.01859 2.34025C2.01859 1.71809 1.99817 1.42775 1.99817 1.15814C2.18195 1.15814 2.30448 1.15814 2.59037 1.15814C3.18257 1.15814 3.79518 1.15814 3.79518 1.73883C3.79518 2.2573 3.24383 2.34025 2.99878 2.36099C3.16214 2.58912 3.89729 3.41867 4.04023 3.58458L4.01981 3.62606ZM2.85584 0.660411C1.87565 0.660411 1.12008 1.44849 1.12008 2.44395C1.12008 3.46015 1.85523 4.22749 2.85584 4.22749C3.85645 4.22749 4.59159 3.46015 4.59159 2.44395C4.61202 1.46922 3.89729 0.660411 2.85584 0.660411ZM2.85584 0.266373C4.06066 0.266373 5.00001 1.2411 5.00001 2.44395C5.00001 3.66754 4.04024 4.62152 2.85584 4.62152C1.67144 4.62152 0.71167 3.66754 0.71167 2.44395C0.732091 1.22036 1.69186 0.266373 2.85584 0.266373Z" fill="white"/>
</svg>
